<?xml version="1.0" encoding="UTF-8" standalone="no"?>
<!-- Created with Inkscape (http://www.inkscape.org/) -->

<svg
   xmlns:dc="http://purl.org/dc/elements/1.1/"
   xmlns:cc="http://creativecommons.org/ns#"
   xmlns:rdf="http://www.w3.org/1999/02/22-rdf-syntax-ns#"
   xmlns:svg="http://www.w3.org/2000/svg"
   xmlns="http://www.w3.org/2000/svg"
   xmlns:xlink="http://www.w3.org/1999/xlink"
   xmlns:sodipodi="http://sodipodi.sourceforge.net/DTD/sodipodi-0.dtd"
   xmlns:inkscape="http://www.inkscape.org/namespaces/inkscape"
   width="367.33337"
   height="367.33337"
   id="svg2"
   version="1.1"
   inkscape:version="0.48.3.1 r9886"
   sodipodi:docname="danger.svg">
  <defs
     id="defs4">
    <linearGradient
       id="linearGradient5391">
      <stop
         style="stop-color:#ffffff;stop-opacity:0.52482271;"
         offset="0"
         id="stop5393" />
      <stop
         style="stop-color:#ffffff;stop-opacity:0;"
         offset="1"
         id="stop5395" />
    </linearGradient>
    <linearGradient
       id="linearGradient5318">
      <stop
         style="stop-color:#666666;stop-opacity:1;"
         offset="0"
         id="stop5320" />
      <stop
         id="stop5326"
         offset="0.93791777"
         style="stop-color:#ababab;stop-opacity:1;" />
      <stop
         style="stop-color:#6f6f6f;stop-opacity:1;"
         offset="1"
         id="stop5322" />
    </linearGradient>
    <linearGradient
       id="linearGradient5274">
      <stop
         style="stop-color:#e7e7e7;stop-opacity:1;"
         offset="0"
         id="stop5276" />
      <stop
         style="stop-color:#eaeaea;stop-opacity:1;"
         offset="1"
         id="stop5278" />
    </linearGradient>
    <linearGradient
       id="linearGradient3773">
      <stop
         id="stop3785"
         offset="0"
         style="stop-color:#56fe01;stop-opacity:1;" />
      <stop
         id="stop3781"
         offset="0.5"
         style="stop-color:#fdf602;stop-opacity:1;" />
      <stop
         style="stop-color:#fcd418;stop-opacity:1;"
         offset="0.75"
         id="stop3783" />
      <stop
         style="stop-color:#fd0307;stop-opacity:1;"
         offset="1"
         id="stop3777" />
    </linearGradient>
    <inkscape:path-effect
       effect="skeletal"
       id="path-effect2991"
       is_visible="true"
       pattern="m 36.612109,-8.0176386 10,5 0,-10.0000004 z"
       copytype="single_stretched"
       prop_scale="1"
       scale_y_rel="false"
       spacing="0"
       normal_offset="0"
       tang_offset="0"
       prop_units="false"
       vertical_pattern="false"
       fuse_tolerance="0" />
    <filter
       inkscape:collect="always"
       id="filter5356"
       color-interpolation-filters="sRGB">
      <feGaussianBlur
         inkscape:collect="always"
         stdDeviation="2.4419658"
         id="feGaussianBlur5358" />
    </filter>
    <filter
       inkscape:collect="always"
       id="filter5385"
       color-interpolation-filters="sRGB">
      <feGaussianBlur
         inkscape:collect="always"
         stdDeviation="1.6353409"
         id="feGaussianBlur5387" />
    </filter>
    <radialGradient
       inkscape:collect="always"
       xlink:href="#linearGradient5318"
       id="radialGradient5421"
       gradientUnits="userSpaceOnUse"
       cx="376.69791"
       cy="506.43497"
       fx="376.69791"
       fy="506.43497"
       r="164.28409" />
    <linearGradient
       inkscape:collect="always"
       xlink:href="#linearGradient5274"
       id="linearGradient5423"
       gradientUnits="userSpaceOnUse"
       x1="212.41382"
       y1="506.43497"
       x2="540.98199"
       y2="506.43497" />
    <linearGradient
       inkscape:collect="always"
       xlink:href="#linearGradient3773"
       id="linearGradient5425"
       gradientUnits="userSpaceOnUse"
       gradientTransform="translate(2.4468801,0)"
       x1="210.924"
       y1="418.97571"
       x2="539.20526"
       y2="418.97571" />
    <radialGradient
       inkscape:collect="always"
       xlink:href="#linearGradient5391"
       id="radialGradient5427"
       gradientUnits="userSpaceOnUse"
       cx="338.27863"
       cy="452.89563"
       fx="338.27863"
       fy="452.89563"
       r="36.819443" />
  </defs>
  <sodipodi:namedview
     id="base"
     pagecolor="#ffffff"
     bordercolor="#666666"
     borderopacity="1.0"
     inkscape:pageopacity="0.0"
     inkscape:pageshadow="2"
     inkscape:zoom="0.86910605"
     inkscape:cx="142.87699"
     inkscape:cy="189.15648"
     inkscape:document-units="px"
     inkscape:current-layer="layer1"
     showgrid="false"
     inkscape:object-paths="false"
     fit-margin-left="5"
     fit-margin-top="5"
     fit-margin-bottom="5"
     fit-margin-right="5"
     inkscape:window-width="1855"
     inkscape:window-height="1056"
     inkscape:window-x="65"
     inkscape:window-y="24"
     inkscape:window-maximized="1" />
  <metadata
     id="metadata7">
    <rdf:RDF>
      <cc:Work
         rdf:about="">
        <dc:format>image/svg+xml</dc:format>
        <dc:type
           rdf:resource="http://purl.org/dc/dcmitype/StillImage" />
        <dc:title></dc:title>
      </cc:Work>
    </rdf:RDF>
  </metadata>
  <g
     inkscape:label="Calque 1"
     inkscape:groupmode="layer"
     id="layer1"
     transform="translate(-190.393,-321.7164)">
    <g
       id="g5481">
      <path
         transform="matrix(1.0875471,0,0,1.0875471,-35.617033,-45.388792)"
         d="m 540.23199,506.43497 a 163.53409,163.53409 0 1 1 -327.06817,0 163.53409,163.53409 0 1 1 327.06817,0 z"
         sodipodi:ry="163.53409"
         sodipodi:rx="163.53409"
         sodipodi:cy="506.43497"
         sodipodi:cx="376.69791"
         id="path5289"
         style="fill:url(#radialGradient5421);fill-opacity:1;stroke:#000000;stroke-width:1.5;stroke-linecap:round;stroke-linejoin:round;stroke-miterlimit:0;stroke-opacity:1;stroke-dasharray:none"
         sodipodi:type="arc" />
      <path
         sodipodi:type="arc"
         style="fill:url(#linearGradient5423);fill-opacity:1;stroke:#000000;stroke-width:1.5;stroke-linecap:round;stroke-linejoin:round;stroke-miterlimit:0;stroke-opacity:1;stroke-dasharray:none"
         id="path3001"
         sodipodi:cx="376.69791"
         sodipodi:cy="506.43497"
         sodipodi:rx="163.53409"
         sodipodi:ry="163.53409"
         d="m 540.23199,506.43497 a 163.53409,163.53409 0 1 1 -327.06817,0 163.53409,163.53409 0 1 1 327.06817,0 z"
         transform="translate(-2.6382237,-0.36522954)" />
      <g
         transform="translate(-3.4518222,0.68664986)"
         id="g5293">
        <path
           style="fill:url(#linearGradient5425);fill-opacity:1;stroke:#000000;stroke-width:1.5;stroke-linecap:round;stroke-linejoin:round;stroke-miterlimit:0;stroke-opacity:1;stroke-dasharray:none"
           d="m 377.49588,340.4757 c -88.13252,0 -159.95051,69.707 -163.375,157 l 30,0 c 3.40439,-70.73478 61.79638,-127.03125 133.375,-127.03125 71.57862,0 130.00186,56.29647 133.40625,127.03125 l 30,0 c -3.42449,-87.293 -75.27373,-157 -163.40625,-157 z"
           id="path2985"
           inkscape:connector-curvature="0" />
        <path
           style="fill:none;stroke:#000000;stroke-width:1px;stroke-linecap:butt;stroke-linejoin:miter;stroke-opacity:1"
           d="m 244.27622,409.9607 24.57704,16.36401"
           id="path5248"
           inkscape:connector-curvature="0"
           sodipodi:nodetypes="cc" />
        <path
           inkscape:connector-curvature="0"
           id="path5250"
           d="m 313.67758,353.39676 13.44823,26.87235"
           style="fill:none;stroke:#000000;stroke-width:1px;stroke-linecap:butt;stroke-linejoin:miter;stroke-opacity:1"
           sodipodi:nodetypes="cc" />
        <path
           sodipodi:nodetypes="cc"
           inkscape:connector-curvature="0"
           id="path5256"
           d="m 513.24632,413.58955 -24.57704,16.36401"
           style="fill:none;stroke:#000000;stroke-width:1px;stroke-linecap:butt;stroke-linejoin:miter;stroke-opacity:1" />
        <path
           sodipodi:nodetypes="cc"
           style="fill:none;stroke:#000000;stroke-width:1px;stroke-linecap:butt;stroke-linejoin:miter;stroke-opacity:1"
           d="m 445.10967,355.01042 -13.44823,26.87235"
           id="path5258"
           inkscape:connector-curvature="0" />
      </g>
      <g
         style="opacity:0.59498207;filter:url(#filter5356)"
         id="g5332"
         transform="translate(-4.6024302,-3.0090632e-8)">
        <path
           inkscape:connector-curvature="0"
           inkscape:original-d="m 519.08215,432.78664 -131.66468,72.9402"
           inkscape:path-effect="#path-effect2991"
           id="path5334"
           d="m 519.08215,432.78664 -134.08764,68.5665 4.84592,8.7474 z"
           style="fill:#000000;fill-rule:evenodd;stroke:none" />
        <path
           transform="matrix(0.4893136,0.8721079,-0.8721079,0.4893136,725.94003,207.10739)"
           d="m 108.20912,450.70319 c 0,7.41411 -6.01032,13.42444 -13.424437,13.42444 -7.414113,0 -13.424439,-6.01033 -13.424439,-13.42444 0,-7.41412 6.010326,-13.42444 13.424439,-13.42444 7.414117,0 13.424437,6.01032 13.424437,13.42444 z"
           sodipodi:ry="13.424439"
           sodipodi:rx="13.424439"
           sodipodi:cy="450.70319"
           sodipodi:cx="94.784683"
           id="path5336"
           style="fill:#000000;fill-opacity:1;stroke:#000000;stroke-width:1.5;stroke-linecap:round;stroke-linejoin:round;stroke-miterlimit:0;stroke-opacity:1;stroke-dasharray:none"
           sodipodi:type="arc" />
        <path
           sodipodi:type="arc"
           style="fill:#ffffff;fill-opacity:1;stroke:#000000;stroke-width:1.5;stroke-linecap:round;stroke-linejoin:round;stroke-miterlimit:0;stroke-opacity:1;stroke-dasharray:none"
           id="path5338"
           sodipodi:cx="94.784683"
           sodipodi:cy="450.70319"
           sodipodi:rx="13.424439"
           sodipodi:ry="13.424439"
           d="m 108.20912,450.70319 c 0,7.41411 -6.01032,13.42444 -13.424437,13.42444 -7.414113,0 -13.424439,-6.01033 -13.424439,-13.42444 0,-7.41412 6.010326,-13.42444 13.424439,-13.42444 7.414117,0 13.424437,6.01032 13.424437,13.42444 z"
           transform="matrix(0.07993324,0.14246571,-0.14246571,0.07993324,430.97753,455.8619)" />
      </g>
      <g
         transform="translate(-5.7530378,-1.1506076)"
         id="g5300">
        <path
           style="fill:#000000;fill-rule:evenodd;stroke:none"
           d="m 519.08215,432.78664 -134.08764,68.5665 4.84592,8.7474 z"
           id="path2989"
           inkscape:path-effect="#path-effect2991"
           inkscape:original-d="m 519.08215,432.78664 -131.66468,72.9402"
           inkscape:connector-curvature="0" />
        <path
           sodipodi:type="arc"
           style="fill:#000000;fill-opacity:1;stroke:#000000;stroke-width:1.5;stroke-linecap:round;stroke-linejoin:round;stroke-miterlimit:0;stroke-opacity:1;stroke-dasharray:none"
           id="path2993"
           sodipodi:cx="94.784683"
           sodipodi:cy="450.70319"
           sodipodi:rx="13.424439"
           sodipodi:ry="13.424439"
           d="m 108.20912,450.70319 c 0,7.41411 -6.01032,13.42444 -13.424437,13.42444 -7.414113,0 -13.424439,-6.01033 -13.424439,-13.42444 0,-7.41412 6.010326,-13.42444 13.424439,-13.42444 7.414117,0 13.424437,6.01032 13.424437,13.42444 z"
           transform="matrix(0.4893136,0.8721079,-0.8721079,0.4893136,725.94003,207.10739)" />
        <path
           transform="matrix(0.07993324,0.14246571,-0.14246571,0.07993324,430.97753,455.8619)"
           d="m 108.20912,450.70319 c 0,7.41411 -6.01032,13.42444 -13.424437,13.42444 -7.414113,0 -13.424439,-6.01033 -13.424439,-13.42444 0,-7.41412 6.010326,-13.42444 13.424439,-13.42444 7.414117,0 13.424437,6.01032 13.424437,13.42444 z"
           sodipodi:ry="13.424439"
           sodipodi:rx="13.424439"
           sodipodi:cy="450.70319"
           sodipodi:cx="94.784683"
           id="path5262"
           style="fill:#ffffff;fill-opacity:1;stroke:#000000;stroke-width:1.5;stroke-linecap:round;stroke-linejoin:round;stroke-miterlimit:0;stroke-opacity:1;stroke-dasharray:none"
           sodipodi:type="arc" />
      </g>
      <g
         id="text5328"
         style="font-size:144px;font-style:normal;font-variant:normal;font-weight:normal;font-stretch:normal;line-height:125%;letter-spacing:0px;word-spacing:0px;fill:#000000;fill-opacity:1;stroke:none;font-family:Ubuntu;-inkscape-font-specification:Ubuntu">
        <path
           id="path5469"
           style="font-size:36px;fill:#ff0000;stroke:#ff0000;font-family:Score Board;-inkscape-font-specification:Score Board"
           d="m 319.71692,589.78363 0.65039,0 c 0.70312,0.45706 1.05468,0.99612 1.05469,1.61719 -0.18751,0.64455 -0.53907,1.1133 -1.05469,1.40625 l -0.65039,0 c -0.70313,-0.46873 -1.05469,-1.01365 -1.05469,-1.63477 0.19922,-0.6445 0.55078,-1.10739 1.05469,-1.38867 m 3.19922,0 0.63281,0 c 0.71484,0.45706 1.07226,0.99612 1.07227,1.61719 -0.19923,0.64455 -0.55665,1.1133 -1.07227,1.40625 l -0.63281,0 c -0.71485,-0.46873 -1.07227,-1.01365 -1.07227,-1.63477 0.19922,-0.6445 0.55664,-1.10739 1.07227,-1.38867 m 3.18164,0 0.65039,0 c 0.70311,0.45706 1.05468,0.99612 1.05469,1.61719 -0.19923,0.64455 -0.5508,1.1133 -1.05469,1.40625 l -0.65039,0 c -0.70314,-0.46873 -1.0547,-1.01365 -1.05469,-1.63477 0.19921,-0.6445 0.55077,-1.10739 1.05469,-1.38867 m 3.19922,0 0.63281,0 c 0.71483,0.45706 1.07225,0.99612 1.07227,1.61719 -0.19924,0.64455 -0.55666,1.1133 -1.07227,1.40625 l -0.63281,0 c -0.71486,-0.46873 -1.07228,-1.01365 -1.07227,-1.63477 0.19921,-0.6445 0.55663,-1.10739 1.07227,-1.38867 m -9.58008,3.70898 0.65039,0 c 0.70312,0.46878 1.05468,1.0137 1.05469,1.63477 -0.18751,0.64455 -0.53907,1.10744 -1.05469,1.38867 l -0.65039,0 c -0.70313,-0.45701 -1.05469,-0.99607 -1.05469,-1.61719 0.19922,-0.64451 0.55078,-1.11326 1.05469,-1.40625 m 12.76172,0 0.65039,0 c 0.70311,0.46878 1.05467,1.0137 1.05469,1.63477 -0.19924,0.64455 -0.5508,1.10744 -1.05469,1.38867 l -0.65039,0 c -0.70314,-0.45701 -1.0547,-0.99607 -1.05469,-1.61719 0.18749,-0.64451 0.53905,-1.11326 1.05469,-1.40625 m -12.76172,3.72657 0.65039,0 c 0.70312,0.46876 1.05468,1.01369 1.05469,1.63476 -0.18751,0.63283 -0.53907,1.09572 -1.05469,1.38867 l -0.65039,0 c -0.70313,-0.46873 -1.05469,-1.01365 -1.05469,-1.63476 0.19922,-0.6328 0.55078,-1.09569 1.05469,-1.38867 m 12.76172,0 0.65039,0 c 0.70311,0.46876 1.05467,1.01369 1.05469,1.63476 -0.19924,0.63283 -0.5508,1.09572 -1.05469,1.38867 l -0.65039,0 c -0.70314,-0.46873 -1.0547,-1.01365 -1.05469,-1.63476 0.18749,-0.6328 0.53905,-1.09569 1.05469,-1.38867 m -12.76172,3.72656 0.65039,0 c 0.70312,0.45704 1.05468,0.99611 1.05469,1.61719 -0.18751,0.64454 -0.53907,1.11329 -1.05469,1.40625 l -0.65039,0 c -0.70313,-0.46874 -1.05469,-1.01366 -1.05469,-1.63477 0.19922,-0.6328 0.55078,-1.09569 1.05469,-1.38867 m 12.76172,0 0.65039,0 c 0.70311,0.45704 1.05467,0.99611 1.05469,1.61719 -0.19924,0.64454 -0.5508,1.11329 -1.05469,1.40625 l -0.65039,0 c -0.70314,-0.46874 -1.0547,-1.01366 -1.05469,-1.63477 0.18749,-0.6328 0.53905,-1.09569 1.05469,-1.38867 m -12.76172,3.72656 0.65039,0 c 0.70312,0.45704 1.05468,0.99611 1.05469,1.61719 -0.18751,0.64454 -0.53907,1.11329 -1.05469,1.40625 l -0.65039,0 c -0.70313,-0.46874 -1.05469,-1.01366 -1.05469,-1.63477 0.19922,-0.64452 0.55078,-1.10741 1.05469,-1.38867 m 12.76172,0 0.65039,0 c 0.70311,0.45704 1.05467,0.99611 1.05469,1.61719 -0.19924,0.64454 -0.5508,1.11329 -1.05469,1.40625 l -0.65039,0 c -0.70314,-0.46874 -1.0547,-1.01366 -1.05469,-1.63477 0.18749,-0.64452 0.53905,-1.10741 1.05469,-1.38867 m -12.76172,3.70899 0.65039,0 c 0.70312,0.46875 1.05468,1.01367 1.05469,1.63476 -0.18751,0.63282 -0.53907,1.09571 -1.05469,1.38867 l -0.65039,0 c -0.70313,-0.45702 -1.05469,-0.99608 -1.05469,-1.61718 0.19922,-0.64453 0.55078,-1.11328 1.05469,-1.40625 m 12.76172,0 0.65039,0 c 0.70311,0.46875 1.05467,1.01367 1.05469,1.63476 -0.19924,0.63282 -0.5508,1.09571 -1.05469,1.38867 l -0.65039,0 c -0.70314,-0.45702 -1.0547,-0.99608 -1.05469,-1.61718 0.18749,-0.64453 0.53905,-1.11328 1.05469,-1.40625 m -12.76172,3.72656 0.65039,0 c 0.70312,0.46875 1.05468,1.01367 1.05469,1.63476 -0.18751,0.63282 -0.53907,1.09571 -1.05469,1.38868 l -0.65039,0 c -0.70313,-0.46875 -1.05469,-1.01367 -1.05469,-1.63477 0.19922,-0.63281 0.55078,-1.0957 1.05469,-1.38867 m 3.19922,0 0.63281,0 c 0.71484,0.46875 1.07226,1.01367 1.07227,1.63476 -0.19923,0.63282 -0.55665,1.09571 -1.07227,1.38868 l -0.63281,0 c -0.71485,-0.46875 -1.07227,-1.01367 -1.07227,-1.63477 0.19922,-0.63281 0.55664,-1.0957 1.07227,-1.38867 m 3.18164,0 0.65039,0 c 0.70311,0.46875 1.05468,1.01367 1.05469,1.63476 -0.19923,0.63282 -0.5508,1.09571 -1.05469,1.38868 l -0.65039,0 c -0.70314,-0.46875 -1.0547,-1.01367 -1.05469,-1.63477 0.19921,-0.63281 0.55077,-1.0957 1.05469,-1.38867 m 3.19922,0 0.63281,0 c 0.71483,0.46875 1.07225,1.01367 1.07227,1.63476 -0.19924,0.63282 -0.55666,1.09571 -1.07227,1.38868 l -0.63281,0 c -0.71486,-0.46875 -1.07228,-1.01367 -1.07227,-1.63477 0.19921,-0.63281 0.55663,-1.0957 1.07227,-1.38867" />
        <path
           id="path5471"
           style="font-size:36px;fill:#ff0000;stroke:#ff0000;font-family:Score Board;-inkscape-font-specification:Score Board"
           d="m 341.97083,589.78363 0.63281,0 c 0.71483,0.45706 1.07226,0.99612 1.07226,1.61719 -0.19922,0.64455 -0.55664,1.1133 -1.07226,1.40625 l -0.63281,0 c -0.71485,-0.46873 -1.07228,-1.01365 -1.07227,-1.63477 0.19921,-0.6445 0.55663,-1.10739 1.07227,-1.38867 m 3.18164,0 0.65039,0 c 0.70311,0.45706 1.05467,0.99612 1.05468,1.61719 -0.19923,0.64455 -0.55079,1.1133 -1.05468,1.40625 l -0.65039,0 c -0.70314,-0.46873 -1.0547,-1.01365 -1.05469,-1.63477 0.19921,-0.6445 0.55077,-1.10739 1.05469,-1.38867 m 3.19921,0 0.63282,0 c 0.71483,0.45706 1.07225,0.99612 1.07226,1.61719 -0.19923,0.64455 -0.55665,1.1133 -1.07226,1.40625 l -0.63282,0 c -0.71485,-0.46873 -1.07227,-1.01365 -1.07226,-1.63477 0.19921,-0.6445 0.55663,-1.10739 1.07226,-1.38867 m -9.58007,3.70898 0.65039,0 c 0.70312,0.46878 1.05468,1.0137 1.05468,1.63477 -0.1875,0.64455 -0.53906,1.10744 -1.05468,1.38867 l -0.65039,0 c -0.70313,-0.45701 -1.05469,-0.99607 -1.05469,-1.61719 0.19922,-0.64451 0.55078,-1.11326 1.05469,-1.40625 m 12.76172,0 0.65039,0 c 0.7031,0.46878 1.05467,1.0137 1.05468,1.63477 -0.19923,0.64455 -0.55079,1.10744 -1.05468,1.38867 l -0.65039,0 c -0.70314,-0.45701 -1.05471,-0.99607 -1.05469,-1.61719 0.18748,-0.64451 0.53905,-1.11326 1.05469,-1.40625 m -12.76172,3.72657 0.65039,0 c 0.70312,0.46876 1.05468,1.01369 1.05468,1.63476 -0.1875,0.63283 -0.53906,1.09572 -1.05468,1.38867 l -0.65039,0 c -0.70313,-0.46873 -1.05469,-1.01365 -1.05469,-1.63476 0.19922,-0.6328 0.55078,-1.09569 1.05469,-1.38867 m 12.76172,0 0.65039,0 c 0.7031,0.46876 1.05467,1.01369 1.05468,1.63476 -0.19923,0.63283 -0.55079,1.09572 -1.05468,1.38867 l -0.65039,0 c -0.70314,-0.46873 -1.05471,-1.01365 -1.05469,-1.63476 0.18748,-0.6328 0.53905,-1.09569 1.05469,-1.38867 m -12.76172,3.72656 0.65039,0 c 0.70312,0.45704 1.05468,0.99611 1.05468,1.61719 -0.1875,0.64454 -0.53906,1.11329 -1.05468,1.40625 l -0.65039,0 c -0.70313,-0.46874 -1.05469,-1.01366 -1.05469,-1.63477 0.19922,-0.6328 0.55078,-1.09569 1.05469,-1.38867 m 3.19922,0 0.63281,0 c 0.71483,0.45704 1.07226,0.99611 1.07226,1.61719 -0.19922,0.64454 -0.55664,1.11329 -1.07226,1.40625 l -0.63281,0 c -0.71485,-0.46874 -1.07228,-1.01366 -1.07227,-1.63477 0.19921,-0.6328 0.55663,-1.09569 1.07227,-1.38867 m 3.18164,0 0.65039,0 c 0.70311,0.45704 1.05467,0.99611 1.05468,1.61719 -0.19923,0.64454 -0.55079,1.11329 -1.05468,1.40625 l -0.65039,0 c -0.70314,-0.46874 -1.0547,-1.01366 -1.05469,-1.63477 0.19921,-0.6328 0.55077,-1.09569 1.05469,-1.38867 m 3.19921,0 0.63282,0 c 0.71483,0.45704 1.07225,0.99611 1.07226,1.61719 -0.19923,0.64454 -0.55665,1.11329 -1.07226,1.40625 l -0.63282,0 c -0.71485,-0.46874 -1.07227,-1.01366 -1.07226,-1.63477 0.19921,-0.6328 0.55663,-1.09569 1.07226,-1.38867 m 3.18165,0 0.65039,0 c 0.7031,0.45704 1.05467,0.99611 1.05468,1.61719 -0.19923,0.64454 -0.55079,1.11329 -1.05468,1.40625 l -0.65039,0 c -0.70314,-0.46874 -1.05471,-1.01366 -1.05469,-1.63477 0.18748,-0.6328 0.53905,-1.09569 1.05469,-1.38867 m -12.76172,3.72656 0.65039,0 c 0.70312,0.45704 1.05468,0.99611 1.05468,1.61719 -0.1875,0.64454 -0.53906,1.11329 -1.05468,1.40625 l -0.65039,0 c -0.70313,-0.46874 -1.05469,-1.01366 -1.05469,-1.63477 0.19922,-0.64452 0.55078,-1.10741 1.05469,-1.38867 m 12.76172,0 0.65039,0 c 0.7031,0.45704 1.05467,0.99611 1.05468,1.61719 -0.19923,0.64454 -0.55079,1.11329 -1.05468,1.40625 l -0.65039,0 c -0.70314,-0.46874 -1.05471,-1.01366 -1.05469,-1.63477 0.18748,-0.64452 0.53905,-1.10741 1.05469,-1.38867 m -12.76172,3.70899 0.65039,0 c 0.70312,0.46875 1.05468,1.01367 1.05468,1.63476 -0.1875,0.63282 -0.53906,1.09571 -1.05468,1.38867 l -0.65039,0 c -0.70313,-0.45702 -1.05469,-0.99608 -1.05469,-1.61718 0.19922,-0.64453 0.55078,-1.11328 1.05469,-1.40625 m 12.76172,0 0.65039,0 c 0.7031,0.46875 1.05467,1.01367 1.05468,1.63476 -0.19923,0.63282 -0.55079,1.09571 -1.05468,1.38867 l -0.65039,0 c -0.70314,-0.45702 -1.05471,-0.99608 -1.05469,-1.61718 0.18748,-0.64453 0.53905,-1.11328 1.05469,-1.40625 m -12.76172,3.72656 0.65039,0 c 0.70312,0.46875 1.05468,1.01367 1.05468,1.63476 -0.1875,0.63282 -0.53906,1.09571 -1.05468,1.38868 l -0.65039,0 c -0.70313,-0.46875 -1.05469,-1.01367 -1.05469,-1.63477 0.19922,-0.63281 0.55078,-1.0957 1.05469,-1.38867 m 12.76172,0 0.65039,0 c 0.7031,0.46875 1.05467,1.01367 1.05468,1.63476 -0.19923,0.63282 -0.55079,1.09571 -1.05468,1.38868 l -0.65039,0 c -0.70314,-0.46875 -1.05471,-1.01367 -1.05469,-1.63477 0.18748,-0.63281 0.53905,-1.0957 1.05469,-1.38867" />
        <path
           id="path5473"
           style="font-size:36px;fill:#ff0000;stroke:#ff0000;font-family:Score Board;-inkscape-font-specification:Score Board"
           d="m 357.82629,589.78363 0.65039,0 c 0.70313,0.45706 1.05469,0.99612 1.05469,1.61719 -0.1875,0.64455 -0.53906,1.1133 -1.05469,1.40625 l -0.65039,0 c -0.70312,-0.46873 -1.05469,-1.01365 -1.05468,-1.63477 0.19921,-0.6445 0.55078,-1.10739 1.05468,-1.38867 m 12.76172,0 0.65039,0 c 0.70311,0.45706 1.05467,0.99612 1.05469,1.61719 -0.19924,0.64455 -0.5508,1.1133 -1.05469,1.40625 l -0.65039,0 c -0.70314,-0.46873 -1.0547,-1.01365 -1.05468,-1.63477 0.18748,-0.6445 0.53904,-1.10739 1.05468,-1.38867 m -12.76172,3.70898 0.65039,0 c 0.70313,0.46878 1.05469,1.0137 1.05469,1.63477 -0.1875,0.64455 -0.53906,1.10744 -1.05469,1.38867 l -0.65039,0 c -0.70312,-0.45701 -1.05469,-0.99607 -1.05468,-1.61719 0.19921,-0.64451 0.55078,-1.11326 1.05468,-1.40625 m 3.19922,0 0.63282,0 c 0.71483,0.46878 1.07225,1.0137 1.07226,1.63477 -0.19923,0.64455 -0.55665,1.10744 -1.07226,1.38867 l -0.63282,0 c -0.71485,-0.45701 -1.07227,-0.99607 -1.07226,-1.61719 0.19921,-0.64451 0.55663,-1.11326 1.07226,-1.40625 m 9.5625,0 0.65039,0 c 0.70311,0.46878 1.05467,1.0137 1.05469,1.63477 -0.19924,0.64455 -0.5508,1.10744 -1.05469,1.38867 l -0.65039,0 c -0.70314,-0.45701 -1.0547,-0.99607 -1.05468,-1.61719 0.18748,-0.64451 0.53904,-1.11326 1.05468,-1.40625 m -12.76172,3.72657 0.65039,0 c 0.70313,0.46876 1.05469,1.01369 1.05469,1.63476 -0.1875,0.63283 -0.53906,1.09572 -1.05469,1.38867 l -0.65039,0 c -0.70312,-0.46873 -1.05469,-1.01365 -1.05468,-1.63476 0.19921,-0.6328 0.55078,-1.09569 1.05468,-1.38867 m 6.38086,0 0.65039,0 c 0.70312,0.46876 1.05468,1.01369 1.05469,1.63476 -0.19923,0.63283 -0.55079,1.09572 -1.05469,1.38867 l -0.65039,0 c -0.70313,-0.46873 -1.05469,-1.01365 -1.05468,-1.63476 0.19921,-0.6328 0.55077,-1.09569 1.05468,-1.38867 m 6.38086,0 0.65039,0 c 0.70311,0.46876 1.05467,1.01369 1.05469,1.63476 -0.19924,0.63283 -0.5508,1.09572 -1.05469,1.38867 l -0.65039,0 c -0.70314,-0.46873 -1.0547,-1.01365 -1.05468,-1.63476 0.18748,-0.6328 0.53904,-1.09569 1.05468,-1.38867 m -12.76172,3.72656 0.65039,0 c 0.70313,0.45704 1.05469,0.99611 1.05469,1.61719 -0.1875,0.64454 -0.53906,1.11329 -1.05469,1.40625 l -0.65039,0 c -0.70312,-0.46874 -1.05469,-1.01366 -1.05468,-1.63477 0.19921,-0.6328 0.55078,-1.09569 1.05468,-1.38867 m 9.58008,0 0.63281,0 c 0.71483,0.45704 1.07226,0.99611 1.07227,1.61719 -0.19923,0.64454 -0.55665,1.11329 -1.07227,1.40625 l -0.63281,0 c -0.71485,-0.46874 -1.07227,-1.01366 -1.07226,-1.63477 0.1992,-0.6328 0.55663,-1.09569 1.07226,-1.38867 m 3.18164,0 0.65039,0 c 0.70311,0.45704 1.05467,0.99611 1.05469,1.61719 -0.19924,0.64454 -0.5508,1.11329 -1.05469,1.40625 l -0.65039,0 c -0.70314,-0.46874 -1.0547,-1.01366 -1.05468,-1.63477 0.18748,-0.6328 0.53904,-1.09569 1.05468,-1.38867 m -12.76172,3.72656 0.65039,0 c 0.70313,0.45704 1.05469,0.99611 1.05469,1.61719 -0.1875,0.64454 -0.53906,1.11329 -1.05469,1.40625 l -0.65039,0 c -0.70312,-0.46874 -1.05469,-1.01366 -1.05468,-1.63477 0.19921,-0.64452 0.55078,-1.10741 1.05468,-1.38867 m 12.76172,0 0.65039,0 c 0.70311,0.45704 1.05467,0.99611 1.05469,1.61719 -0.19924,0.64454 -0.5508,1.11329 -1.05469,1.40625 l -0.65039,0 c -0.70314,-0.46874 -1.0547,-1.01366 -1.05468,-1.63477 0.18748,-0.64452 0.53904,-1.10741 1.05468,-1.38867 m -12.76172,3.70899 0.65039,0 c 0.70313,0.46875 1.05469,1.01367 1.05469,1.63476 -0.1875,0.63282 -0.53906,1.09571 -1.05469,1.38867 l -0.65039,0 c -0.70312,-0.45702 -1.05469,-0.99608 -1.05468,-1.61718 0.19921,-0.64453 0.55078,-1.11328 1.05468,-1.40625 m 12.76172,0 0.65039,0 c 0.70311,0.46875 1.05467,1.01367 1.05469,1.63476 -0.19924,0.63282 -0.5508,1.09571 -1.05469,1.38867 l -0.65039,0 c -0.70314,-0.45702 -1.0547,-0.99608 -1.05468,-1.61718 0.18748,-0.64453 0.53904,-1.11328 1.05468,-1.40625 m -12.76172,3.72656 0.65039,0 c 0.70313,0.46875 1.05469,1.01367 1.05469,1.63476 -0.1875,0.63282 -0.53906,1.09571 -1.05469,1.38868 l -0.65039,0 c -0.70312,-0.46875 -1.05469,-1.01367 -1.05468,-1.63477 0.19921,-0.63281 0.55078,-1.0957 1.05468,-1.38867 m 12.76172,0 0.65039,0 c 0.70311,0.46875 1.05467,1.01367 1.05469,1.63476 -0.19924,0.63282 -0.5508,1.09571 -1.05469,1.38868 l -0.65039,0 c -0.70314,-0.46875 -1.0547,-1.01367 -1.05468,-1.63477 0.18748,-0.63281 0.53904,-1.0957 1.05468,-1.38867" />
        <path
           id="path5475"
           style="font-size:36px;fill:#ff0000;stroke:#ff0000;font-family:Score Board;-inkscape-font-specification:Score Board"
           d="m 380.0802,589.78363 0.63281,0 c 0.71484,0.45706 1.07226,0.99612 1.07227,1.61719 -0.19923,0.64455 -0.55665,1.1133 -1.07227,1.40625 l -0.63281,0 c -0.71485,-0.46873 -1.07227,-1.01365 -1.07227,-1.63477 0.19922,-0.6445 0.55664,-1.10739 1.07227,-1.38867 m 3.18164,0 0.65039,0 c 0.70312,0.45706 1.05468,0.99612 1.05469,1.61719 -0.19923,0.64455 -0.55079,1.1133 -1.05469,1.40625 l -0.65039,0 c -0.70313,-0.46873 -1.05469,-1.01365 -1.05469,-1.63477 0.19921,-0.6445 0.55078,-1.10739 1.05469,-1.38867 m 3.19922,0 0.63281,0 c 0.71483,0.45706 1.07225,0.99612 1.07227,1.61719 -0.19923,0.64455 -0.55666,1.1133 -1.07227,1.40625 l -0.63281,0 c -0.71486,-0.46873 -1.07228,-1.01365 -1.07227,-1.63477 0.19921,-0.6445 0.55663,-1.10739 1.07227,-1.38867 m -9.58008,3.70898 0.65039,0 c 0.70312,0.46878 1.05469,1.0137 1.05469,1.63477 -0.1875,0.64455 -0.53907,1.10744 -1.05469,1.38867 l -0.65039,0 c -0.70313,-0.45701 -1.05469,-0.99607 -1.05469,-1.61719 0.19922,-0.64451 0.55078,-1.11326 1.05469,-1.40625 m 12.76172,0 0.65039,0 c 0.70311,0.46878 1.05467,1.0137 1.05469,1.63477 -0.19924,0.64455 -0.5508,1.10744 -1.05469,1.38867 l -0.65039,0 c -0.70314,-0.45701 -1.0547,-0.99607 -1.05469,-1.61719 0.18749,-0.64451 0.53905,-1.11326 1.05469,-1.40625 m -12.76172,3.72657 0.65039,0 c 0.70312,0.46876 1.05469,1.01369 1.05469,1.63476 -0.1875,0.63283 -0.53907,1.09572 -1.05469,1.38867 l -0.65039,0 c -0.70313,-0.46873 -1.05469,-1.01365 -1.05469,-1.63476 0.19922,-0.6328 0.55078,-1.09569 1.05469,-1.38867 m 0,3.72656 0.65039,0 c 0.70312,0.45704 1.05469,0.99611 1.05469,1.61719 -0.1875,0.64454 -0.53907,1.11329 -1.05469,1.40625 l -0.65039,0 c -0.70313,-0.46874 -1.05469,-1.01366 -1.05469,-1.63477 0.19922,-0.6328 0.55078,-1.09569 1.05469,-1.38867 m 6.38086,0 0.65039,0 c 0.70312,0.45704 1.05468,0.99611 1.05469,1.61719 -0.19923,0.64454 -0.55079,1.11329 -1.05469,1.40625 l -0.65039,0 c -0.70313,-0.46874 -1.05469,-1.01366 -1.05469,-1.63477 0.19921,-0.6328 0.55078,-1.09569 1.05469,-1.38867 m 3.19922,0 0.63281,0 c 0.71483,0.45704 1.07225,0.99611 1.07227,1.61719 -0.19923,0.64454 -0.55666,1.11329 -1.07227,1.40625 l -0.63281,0 c -0.71486,-0.46874 -1.07228,-1.01366 -1.07227,-1.63477 0.19921,-0.6328 0.55663,-1.09569 1.07227,-1.38867 m 3.18164,0 0.65039,0 c 0.70311,0.45704 1.05467,0.99611 1.05469,1.61719 -0.19924,0.64454 -0.5508,1.11329 -1.05469,1.40625 l -0.65039,0 c -0.70314,-0.46874 -1.0547,-1.01366 -1.05469,-1.63477 0.18749,-0.6328 0.53905,-1.09569 1.05469,-1.38867 m -12.76172,3.72656 0.65039,0 c 0.70312,0.45704 1.05469,0.99611 1.05469,1.61719 -0.1875,0.64454 -0.53907,1.11329 -1.05469,1.40625 l -0.65039,0 c -0.70313,-0.46874 -1.05469,-1.01366 -1.05469,-1.63477 0.19922,-0.64452 0.55078,-1.10741 1.05469,-1.38867 m 12.76172,0 0.65039,0 c 0.70311,0.45704 1.05467,0.99611 1.05469,1.61719 -0.19924,0.64454 -0.5508,1.11329 -1.05469,1.40625 l -0.65039,0 c -0.70314,-0.46874 -1.0547,-1.01366 -1.05469,-1.63477 0.18749,-0.64452 0.53905,-1.10741 1.05469,-1.38867 m -12.76172,3.70899 0.65039,0 c 0.70312,0.46875 1.05469,1.01367 1.05469,1.63476 -0.1875,0.63282 -0.53907,1.09571 -1.05469,1.38867 l -0.65039,0 c -0.70313,-0.45702 -1.05469,-0.99608 -1.05469,-1.61718 0.19922,-0.64453 0.55078,-1.11328 1.05469,-1.40625 m 12.76172,0 0.65039,0 c 0.70311,0.46875 1.05467,1.01367 1.05469,1.63476 -0.19924,0.63282 -0.5508,1.09571 -1.05469,1.38867 l -0.65039,0 c -0.70314,-0.45702 -1.0547,-0.99608 -1.05469,-1.61718 0.18749,-0.64453 0.53905,-1.11328 1.05469,-1.40625 m -9.5625,3.72656 0.63281,0 c 0.71484,0.46875 1.07226,1.01367 1.07227,1.63476 -0.19923,0.63282 -0.55665,1.09571 -1.07227,1.38868 l -0.63281,0 c -0.71485,-0.46875 -1.07227,-1.01367 -1.07227,-1.63477 0.19922,-0.63281 0.55664,-1.0957 1.07227,-1.38867 m 3.18164,0 0.65039,0 c 0.70312,0.46875 1.05468,1.01367 1.05469,1.63476 -0.19923,0.63282 -0.55079,1.09571 -1.05469,1.38868 l -0.65039,0 c -0.70313,-0.46875 -1.05469,-1.01367 -1.05469,-1.63477 0.19921,-0.63281 0.55078,-1.0957 1.05469,-1.38867 m 3.19922,0 0.63281,0 c 0.71483,0.46875 1.07225,1.01367 1.07227,1.63476 -0.19923,0.63282 -0.55666,1.09571 -1.07227,1.38868 l -0.63281,0 c -0.71486,-0.46875 -1.07228,-1.01367 -1.07227,-1.63477 0.19921,-0.63281 0.55663,-1.0957 1.07227,-1.38867" />
        <path
           id="path5477"
           style="font-size:36px;fill:#ff0000;stroke:#ff0000;font-family:Score Board;-inkscape-font-specification:Score Board"
           d="m 395.93567,589.78363 0.65039,0 c 0.70312,0.45706 1.05468,0.99612 1.05469,1.61719 -0.18751,0.64455 -0.53907,1.1133 -1.05469,1.40625 l -0.65039,0 c -0.70313,-0.46873 -1.05469,-1.01365 -1.05469,-1.63477 0.19922,-0.6445 0.55078,-1.10739 1.05469,-1.38867 m 3.19922,0 0.63281,0 c 0.71484,0.45706 1.07226,0.99612 1.07227,1.61719 -0.19923,0.64455 -0.55665,1.1133 -1.07227,1.40625 l -0.63281,0 c -0.71485,-0.46873 -1.07227,-1.01365 -1.07227,-1.63477 0.19922,-0.6445 0.55664,-1.10739 1.07227,-1.38867 m 3.18164,0 0.65039,0 c 0.70311,0.45706 1.05468,0.99612 1.05469,1.61719 -0.19923,0.64455 -0.5508,1.1133 -1.05469,1.40625 l -0.65039,0 c -0.70314,-0.46873 -1.0547,-1.01365 -1.05469,-1.63477 0.19921,-0.6445 0.55077,-1.10739 1.05469,-1.38867 m 3.19922,0 0.63281,0 c 0.71483,0.45706 1.07225,0.99612 1.07227,1.61719 -0.19924,0.64455 -0.55666,1.1133 -1.07227,1.40625 l -0.63281,0 c -0.71486,-0.46873 -1.07228,-1.01365 -1.07227,-1.63477 0.19921,-0.6445 0.55663,-1.10739 1.07227,-1.38867 m 3.18164,0 0.65039,0 c 0.70311,0.45706 1.05467,0.99612 1.05469,1.61719 -0.19924,0.64455 -0.5508,1.1133 -1.05469,1.40625 l -0.65039,0 c -0.70314,-0.46873 -1.0547,-1.01365 -1.05469,-1.63477 0.18749,-0.6445 0.53905,-1.10739 1.05469,-1.38867 m -12.76172,3.70898 0.65039,0 c 0.70312,0.46878 1.05468,1.0137 1.05469,1.63477 -0.18751,0.64455 -0.53907,1.10744 -1.05469,1.38867 l -0.65039,0 c -0.70313,-0.45701 -1.05469,-0.99607 -1.05469,-1.61719 0.19922,-0.64451 0.55078,-1.11326 1.05469,-1.40625 m 0,3.72657 0.65039,0 c 0.70312,0.46876 1.05468,1.01369 1.05469,1.63476 -0.18751,0.63283 -0.53907,1.09572 -1.05469,1.38867 l -0.65039,0 c -0.70313,-0.46873 -1.05469,-1.01365 -1.05469,-1.63476 0.19922,-0.6328 0.55078,-1.09569 1.05469,-1.38867 m 0,3.72656 0.65039,0 c 0.70312,0.45704 1.05468,0.99611 1.05469,1.61719 -0.18751,0.64454 -0.53907,1.11329 -1.05469,1.40625 l -0.65039,0 c -0.70313,-0.46874 -1.05469,-1.01366 -1.05469,-1.63477 0.19922,-0.6328 0.55078,-1.09569 1.05469,-1.38867 m 3.19922,0 0.63281,0 c 0.71484,0.45704 1.07226,0.99611 1.07227,1.61719 -0.19923,0.64454 -0.55665,1.11329 -1.07227,1.40625 l -0.63281,0 c -0.71485,-0.46874 -1.07227,-1.01366 -1.07227,-1.63477 0.19922,-0.6328 0.55664,-1.09569 1.07227,-1.38867 m 3.18164,0 0.65039,0 c 0.70311,0.45704 1.05468,0.99611 1.05469,1.61719 -0.19923,0.64454 -0.5508,1.11329 -1.05469,1.40625 l -0.65039,0 c -0.70314,-0.46874 -1.0547,-1.01366 -1.05469,-1.63477 0.19921,-0.6328 0.55077,-1.09569 1.05469,-1.38867 m 3.19922,0 0.63281,0 c 0.71483,0.45704 1.07225,0.99611 1.07227,1.61719 -0.19924,0.64454 -0.55666,1.11329 -1.07227,1.40625 l -0.63281,0 c -0.71486,-0.46874 -1.07228,-1.01366 -1.07227,-1.63477 0.19921,-0.6328 0.55663,-1.09569 1.07227,-1.38867 m -9.58008,3.72656 0.65039,0 c 0.70312,0.45704 1.05468,0.99611 1.05469,1.61719 -0.18751,0.64454 -0.53907,1.11329 -1.05469,1.40625 l -0.65039,0 c -0.70313,-0.46874 -1.05469,-1.01366 -1.05469,-1.63477 0.19922,-0.64452 0.55078,-1.10741 1.05469,-1.38867 m 0,3.70899 0.65039,0 c 0.70312,0.46875 1.05468,1.01367 1.05469,1.63476 -0.18751,0.63282 -0.53907,1.09571 -1.05469,1.38867 l -0.65039,0 c -0.70313,-0.45702 -1.05469,-0.99608 -1.05469,-1.61718 0.19922,-0.64453 0.55078,-1.11328 1.05469,-1.40625 m 0,3.72656 0.65039,0 c 0.70312,0.46875 1.05468,1.01367 1.05469,1.63476 -0.18751,0.63282 -0.53907,1.09571 -1.05469,1.38868 l -0.65039,0 c -0.70313,-0.46875 -1.05469,-1.01367 -1.05469,-1.63477 0.19922,-0.63281 0.55078,-1.0957 1.05469,-1.38867 m 3.19922,0 0.63281,0 c 0.71484,0.46875 1.07226,1.01367 1.07227,1.63476 -0.19923,0.63282 -0.55665,1.09571 -1.07227,1.38868 l -0.63281,0 c -0.71485,-0.46875 -1.07227,-1.01367 -1.07227,-1.63477 0.19922,-0.63281 0.55664,-1.0957 1.07227,-1.38867 m 3.18164,0 0.65039,0 c 0.70311,0.46875 1.05468,1.01367 1.05469,1.63476 -0.19923,0.63282 -0.5508,1.09571 -1.05469,1.38868 l -0.65039,0 c -0.70314,-0.46875 -1.0547,-1.01367 -1.05469,-1.63477 0.19921,-0.63281 0.55077,-1.0957 1.05469,-1.38867 m 3.19922,0 0.63281,0 c 0.71483,0.46875 1.07225,1.01367 1.07227,1.63476 -0.19924,0.63282 -0.55666,1.09571 -1.07227,1.38868 l -0.63281,0 c -0.71486,-0.46875 -1.07228,-1.01367 -1.07227,-1.63477 0.19921,-0.63281 0.55663,-1.0957 1.07227,-1.38867 m 3.18164,0 0.65039,0 c 0.70311,0.46875 1.05467,1.01367 1.05469,1.63476 -0.19924,0.63282 -0.5508,1.09571 -1.05469,1.38868 l -0.65039,0 c -0.70314,-0.46875 -1.0547,-1.01367 -1.05469,-1.63477 0.18749,-0.63281 0.53905,-1.0957 1.05469,-1.38867" />
        <path
           id="path5479"
           style="font-size:36px;fill:#ff0000;stroke:#ff0000;font-family:Score Board;-inkscape-font-specification:Score Board"
           d="m 414.99036,589.78363 0.65039,0 c 0.70312,0.45706 1.05468,0.99612 1.05468,1.61719 -0.1875,0.64455 -0.53906,1.1133 -1.05468,1.40625 l -0.65039,0 c -0.70313,-0.46873 -1.05469,-1.01365 -1.05469,-1.63477 0.19922,-0.6445 0.55078,-1.10739 1.05469,-1.38867 m 3.19922,0 0.63281,0 c 0.71483,0.45706 1.07226,0.99612 1.07226,1.61719 -0.19922,0.64455 -0.55664,1.1133 -1.07226,1.40625 l -0.63281,0 c -0.71485,-0.46873 -1.07228,-1.01365 -1.07227,-1.63477 0.19921,-0.6445 0.55663,-1.10739 1.07227,-1.38867 m 3.18164,0 0.65039,0 c 0.70311,0.45706 1.05467,0.99612 1.05468,1.61719 -0.19923,0.64455 -0.55079,1.1133 -1.05468,1.40625 l -0.65039,0 c -0.70314,-0.46873 -1.0547,-1.01365 -1.05469,-1.63477 0.19921,-0.6445 0.55077,-1.10739 1.05469,-1.38867 m 3.19921,0 0.63282,0 c 0.71483,0.45706 1.07225,0.99612 1.07226,1.61719 -0.19923,0.64455 -0.55665,1.1133 -1.07226,1.40625 l -0.63282,0 c -0.71485,-0.46873 -1.07227,-1.01365 -1.07226,-1.63477 0.19921,-0.6445 0.55663,-1.10739 1.07226,-1.38867 m -9.58007,3.70898 0.65039,0 c 0.70312,0.46878 1.05468,1.0137 1.05468,1.63477 -0.1875,0.64455 -0.53906,1.10744 -1.05468,1.38867 l -0.65039,0 c -0.70313,-0.45701 -1.05469,-0.99607 -1.05469,-1.61719 0.19922,-0.64451 0.55078,-1.11326 1.05469,-1.40625 m 12.76172,0 0.65039,0 c 0.7031,0.46878 1.05467,1.0137 1.05468,1.63477 -0.19923,0.64455 -0.55079,1.10744 -1.05468,1.38867 l -0.65039,0 c -0.70314,-0.45701 -1.05471,-0.99607 -1.05469,-1.61719 0.18748,-0.64451 0.53905,-1.11326 1.05469,-1.40625 m -12.76172,3.72657 0.65039,0 c 0.70312,0.46876 1.05468,1.01369 1.05468,1.63476 -0.1875,0.63283 -0.53906,1.09572 -1.05468,1.38867 l -0.65039,0 c -0.70313,-0.46873 -1.05469,-1.01365 -1.05469,-1.63476 0.19922,-0.6328 0.55078,-1.09569 1.05469,-1.38867 m 12.76172,0 0.65039,0 c 0.7031,0.46876 1.05467,1.01369 1.05468,1.63476 -0.19923,0.63283 -0.55079,1.09572 -1.05468,1.38867 l -0.65039,0 c -0.70314,-0.46873 -1.05471,-1.01365 -1.05469,-1.63476 0.18748,-0.6328 0.53905,-1.09569 1.05469,-1.38867 m -12.76172,3.72656 0.65039,0 c 0.70312,0.45704 1.05468,0.99611 1.05468,1.61719 -0.1875,0.64454 -0.53906,1.11329 -1.05468,1.40625 l -0.65039,0 c -0.70313,-0.46874 -1.05469,-1.01366 -1.05469,-1.63477 0.19922,-0.6328 0.55078,-1.09569 1.05469,-1.38867 m 3.19922,0 0.63281,0 c 0.71483,0.45704 1.07226,0.99611 1.07226,1.61719 -0.19922,0.64454 -0.55664,1.11329 -1.07226,1.40625 l -0.63281,0 c -0.71485,-0.46874 -1.07228,-1.01366 -1.07227,-1.63477 0.19921,-0.6328 0.55663,-1.09569 1.07227,-1.38867 m 3.18164,0 0.65039,0 c 0.70311,0.45704 1.05467,0.99611 1.05468,1.61719 -0.19923,0.64454 -0.55079,1.11329 -1.05468,1.40625 l -0.65039,0 c -0.70314,-0.46874 -1.0547,-1.01366 -1.05469,-1.63477 0.19921,-0.6328 0.55077,-1.09569 1.05469,-1.38867 m 3.19921,0 0.63282,0 c 0.71483,0.45704 1.07225,0.99611 1.07226,1.61719 -0.19923,0.64454 -0.55665,1.11329 -1.07226,1.40625 l -0.63282,0 c -0.71485,-0.46874 -1.07227,-1.01366 -1.07226,-1.63477 0.19921,-0.6328 0.55663,-1.09569 1.07226,-1.38867 m -9.58007,3.72656 0.65039,0 c 0.70312,0.45704 1.05468,0.99611 1.05468,1.61719 -0.1875,0.64454 -0.53906,1.11329 -1.05468,1.40625 l -0.65039,0 c -0.70313,-0.46874 -1.05469,-1.01366 -1.05469,-1.63477 0.19922,-0.64452 0.55078,-1.10741 1.05469,-1.38867 m 6.38086,0 0.65039,0 c 0.70311,0.45704 1.05467,0.99611 1.05468,1.61719 -0.19923,0.64454 -0.55079,1.11329 -1.05468,1.40625 l -0.65039,0 c -0.70314,-0.46874 -1.0547,-1.01366 -1.05469,-1.63477 0.19921,-0.64452 0.55077,-1.10741 1.05469,-1.38867 m -6.38086,3.70899 0.65039,0 c 0.70312,0.46875 1.05468,1.01367 1.05468,1.63476 -0.1875,0.63282 -0.53906,1.09571 -1.05468,1.38867 l -0.65039,0 c -0.70313,-0.45702 -1.05469,-0.99608 -1.05469,-1.61718 0.19922,-0.64453 0.55078,-1.11328 1.05469,-1.40625 m 9.58007,0 0.63282,0 c 0.71483,0.46875 1.07225,1.01367 1.07226,1.63476 -0.19923,0.63282 -0.55665,1.09571 -1.07226,1.38867 l -0.63282,0 c -0.71485,-0.45702 -1.07227,-0.99608 -1.07226,-1.61718 0.19921,-0.64453 0.55663,-1.11328 1.07226,-1.40625 m -9.58007,3.72656 0.65039,0 c 0.70312,0.46875 1.05468,1.01367 1.05468,1.63476 -0.1875,0.63282 -0.53906,1.09571 -1.05468,1.38868 l -0.65039,0 c -0.70313,-0.46875 -1.05469,-1.01367 -1.05469,-1.63477 0.19922,-0.63281 0.55078,-1.0957 1.05469,-1.38867 m 12.76172,0 0.65039,0 c 0.7031,0.46875 1.05467,1.01367 1.05468,1.63476 -0.19923,0.63282 -0.55079,1.09571 -1.05468,1.38868 l -0.65039,0 c -0.70314,-0.46875 -1.05471,-1.01367 -1.05469,-1.63477 0.18748,-0.63281 0.53905,-1.0957 1.05469,-1.38867" />
      </g>
      <path
         transform="translate(-2.6382237,-0.36522954)"
         d="m 540.23199,506.43497 a 163.53409,163.53409 0 1 1 -327.06817,0 163.53409,163.53409 0 1 1 327.06817,0 z"
         sodipodi:ry="163.53409"
         sodipodi:rx="163.53409"
         sodipodi:cy="506.43497"
         sodipodi:cx="376.69791"
         id="path5383"
         style="opacity:0.46953406;fill:none;stroke:#000000;stroke-width:4.30000019;stroke-linecap:round;stroke-linejoin:round;stroke-miterlimit:0;stroke-opacity:1;stroke-dasharray:none;filter:url(#filter5385)"
         sodipodi:type="arc" />
      <path
         d="m 375.09807,452.89563 a 36.819443,36.819443 0 1 1 -73.63889,0 36.819443,36.819443 0 1 1 73.63889,0 z"
         sodipodi:ry="36.819443"
         sodipodi:rx="36.819443"
         sodipodi:cy="452.89563"
         sodipodi:cx="338.27863"
         id="path5389"
         style="fill:url(#radialGradient5427);fill-opacity:1;stroke:none"
         sodipodi:type="arc" />
    </g>
  </g>
</svg>
